<svg width="384" height="386" viewBox="0 0 384 386" fill="none" xmlns="http://www.w3.org/2000/svg">
<path fill="#000000" fill-rule="evenodd" clip-rule="evenodd" d="M267.493 0.151317C261.133 0.411317 255.503 0.941317 250.773 1.73132C244.253 2.81132 233.903 5.14132 228.693 6.70132C227.483 7.06132 225.953 7.50132 225.293 7.68132C221.183 8.81132 206.823 14.1113 202.493 16.0913C202.053 16.2913 200.793 16.8513 199.693 17.3213C198.593 17.8013 194.763 19.6113 191.173 21.3413C184.643 24.5113 183.353 24.8813 181.803 24.0513C181.073 23.6613 181.013 23.7013 181.273 24.3513C181.443 24.7613 181.753 25.6413 181.963 26.3013C182.183 26.9613 182.503 27.8613 182.683 28.3013C182.863 28.7413 183.583 30.7213 184.283 32.7013C187.913 42.9113 187.923 42.9313 192.143 45.1213C199.453 48.9013 204.273 51.6213 212.873 56.8013L222.453 62.5813L227.723 57.2113L232.993 51.8513L230.943 50.7013C225.323 47.5513 201.673 33.2213 201.563 32.8913C201.493 32.6913 202.483 32.0513 203.763 31.4913C207.463 29.8513 207.573 29.8013 210.093 28.6713C216.793 25.6813 228.983 21.4513 238.293 18.9013C245.003 17.0613 258.683 14.9013 263.643 14.9013C266.323 14.9013 270.473 13.7413 272.923 12.3013C274.413 11.4313 285.093 1.21132 285.093 0.661316C285.093 0.0713162 275.863 -0.188683 267.493 0.151317ZM285.283 7.72132C278.163 14.7813 278.393 14.3713 281.393 14.6713C316.333 18.0813 337.413 35.0413 347.083 67.5013C351.123 81.0813 351.813 98.9213 349.073 119.231C348.523 123.361 348.203 123.201 352.703 121.031C354.783 120.021 357.203 118.951 358.083 118.641C364.443 116.381 365.073 114.551 365.083 98.3013C365.083 83.8313 363.043 68.4013 359.903 59.3013C358.503 55.2413 357.203 51.8813 356.043 49.3613C355.303 47.7513 354.693 46.3613 354.693 46.2813C354.693 45.9713 350.143 38.2713 348.853 36.3913C340.953 24.9113 330.853 16.1813 317.493 9.27132C311.583 6.21132 299.353 2.34132 293.983 1.82132L291.473 1.58132L285.283 7.72132ZM89.8926 4.53132C82.3126 4.94132 74.6526 5.98132 69.4926 7.28132C68.7226 7.47132 67.3126 7.76132 66.3726 7.91132L64.6426 8.18132L64.8926 10.4413C65.0226 11.6813 65.2926 13.8713 65.4926 15.3013C65.6926 16.7313 65.9726 19.0313 66.1126 20.4013C66.2526 21.7813 66.4326 22.9013 66.5026 22.9013C66.5826 22.9013 68.7626 22.3913 71.3626 21.7613C84.3826 18.6213 96.6626 17.9613 113.093 19.5313C116.483 19.8513 126.433 21.4413 129.293 22.1113C130.173 22.3213 132.513 22.8513 134.493 23.3013C137.983 24.0913 139.403 24.4613 144.493 25.9013C147.453 26.7413 159.803 30.8013 160.893 31.2913C161.333 31.4913 162.913 32.0513 164.403 32.5313C167.993 33.7013 168.003 33.7813 164.613 35.9413C159.063 39.4713 155.693 41.6513 155.283 41.9713C155.063 42.1513 153.173 43.4613 151.083 44.8813C144.853 49.1213 133.983 57.2413 128.493 61.7613C125.353 64.3513 118.543 70.1613 116.873 71.6713C115.763 72.6813 113.253 74.9413 111.283 76.7013C106.843 80.6813 91.9426 95.5613 87.8326 100.111C86.1526 101.971 84.2126 104.131 83.5226 104.901C81.8726 106.741 81.6826 107.641 82.2126 111.271C82.4626 112.941 82.7626 115.471 82.8826 116.901C83.2026 120.691 84.0226 126.101 84.2826 126.101C84.4026 126.101 86.2126 124.081 88.2926 121.621C90.3826 119.161 92.5926 116.601 93.2126 115.921C93.8226 115.251 95.8026 113.051 97.6126 111.021C107.663 99.7713 129.593 79.1613 139.893 71.3013C140.883 70.5413 141.783 69.8113 141.893 69.6713C142.313 69.1513 156.283 58.8913 160.493 56.0113C166.693 51.7713 175.073 46.4913 178.193 44.8513C181.303 43.2213 182.423 42.0413 181.953 40.9013C181.733 40.3513 180.703 37.5613 179.673 34.7013C178.653 31.8413 177.663 29.1413 177.483 28.7013C177.303 28.2613 176.733 26.6713 176.223 25.1613C175.103 21.8613 174.273 20.9613 171.223 19.7513C169.943 19.2313 168.323 18.5713 167.633 18.2613C166.943 17.9513 166.173 17.7013 165.923 17.7013C165.683 17.7013 165.173 17.5313 164.793 17.3213C162.953 16.3113 148.473 11.8613 140.693 9.92132C126.113 6.29132 107.963 3.90132 97.0926 4.18132C96.1026 4.21132 92.8626 4.36132 89.8926 4.53132ZM58.1126 10.4713C57.9826 10.6713 57.3026 10.9613 56.6026 11.1213C55.8926 11.2813 55.0426 11.5513 54.7026 11.7413C54.3726 11.9213 53.1926 12.4613 52.0926 12.9313C20.9426 26.2313 1.89255 57.4213 1.89255 95.1213V99.2313L5.59256 102.611C14.9826 111.181 16.8626 112.861 16.9926 112.741C17.0626 112.671 16.9026 108.921 16.6426 104.411C16.1426 95.9413 16.5426 85.2713 17.5226 80.4313C21.9226 58.8013 29.4426 45.5113 43.3426 34.8213C47.7126 31.4513 57.1226 26.1013 58.6726 26.1013C61.0026 26.1013 61.5126 23.8613 60.6726 17.3013C60.4626 15.6513 60.1726 13.3513 60.0326 12.2013C59.7926 10.1713 58.8326 9.30132 58.1126 10.4713ZM232.313 60.5813C229.663 63.2613 227.493 65.5913 227.493 65.7613C227.493 65.9313 229.333 67.3613 231.593 68.9513C236.333 72.2913 241.603 76.1413 241.893 76.4713C242.003 76.6013 242.813 77.2313 243.693 77.8813C244.573 78.5313 247.003 80.4113 249.093 82.0813C257.343 88.6413 266.423 96.4513 272.603 102.301C278.853 108.211 279.813 109.021 282.163 110.291C283.443 110.991 285.753 112.251 287.293 113.091C288.833 113.931 292.793 116.091 296.093 117.901C299.393 119.711 303.353 121.871 304.893 122.701C310.923 125.931 312.963 127.041 314.613 127.981C317.523 129.641 317.193 128.891 312.613 123.501C301.513 110.431 290.653 99.1713 277.093 86.6813C267.163 77.5413 239.303 55.7013 237.563 55.7013C237.333 55.7013 234.963 57.8913 232.313 60.5813ZM2.06255 108.401C2.22255 109.221 2.59255 111.701 2.90255 113.901C5.05256 129.361 7.15255 138.521 11.6926 152.301C12.6426 155.161 13.5926 157.951 13.8126 158.501C14.0226 159.051 14.5126 160.311 14.8926 161.301C15.2826 162.291 15.7326 163.461 15.9226 163.901C16.1026 164.341 16.8726 166.231 17.6326 168.101C19.2826 172.171 20.3626 174.561 23.7726 181.701C26.0526 186.471 26.3326 187.291 26.0926 188.701C25.5326 192.181 25.7426 193.021 29.0326 200.681C32.9326 209.761 32.8326 209.631 33.9426 206.971C35.1126 204.151 35.3426 204.261 38.8026 209.401C40.4726 211.871 43.9726 217.051 46.5926 220.901C49.2026 224.751 52.6726 229.881 54.2926 232.301C58.6026 238.751 57.9626 238.341 60.7126 236.381C62.0026 235.451 64.5926 233.621 66.4626 232.301C70.5626 229.411 70.5326 229.761 67.1726 225.201C62.5626 218.941 57.2526 211.191 53.2526 204.891C43.3626 189.301 42.9126 188.211 45.0126 184.451C45.9426 182.771 56.1026 165.781 57.8926 162.901C58.0926 162.571 58.6526 161.561 59.1226 160.651C59.6026 159.741 60.3926 158.491 60.8826 157.871L61.7826 156.741L58.3326 153.901C53.3926 149.831 50.3026 147.551 50.0526 147.811C49.8026 148.051 47.7526 151.341 40.4926 163.121C35.2626 171.601 35.0526 171.791 33.8526 169.001C33.4026 167.961 32.7926 166.561 32.4826 165.901C32.1826 165.241 31.2826 163.081 30.4926 161.101C29.7026 159.121 28.9026 157.141 28.7226 156.701C28.5426 156.261 28.1926 155.401 27.9426 154.791C27.2926 153.171 23.8326 142.901 23.4626 141.501C23.2926 140.841 22.8526 139.311 22.4926 138.101C21.4826 134.741 19.7326 127.471 19.1226 124.101C18.6526 121.481 18.0926 120.321 16.8426 119.331C16.2326 118.861 14.3826 117.241 12.7126 115.741C1.50255 105.641 1.56255 105.681 2.06255 108.401ZM74.8926 114.601C74.0126 115.741 71.8426 118.571 70.0626 120.881C68.2926 123.201 64.9726 127.531 62.6926 130.501C52.0126 144.391 52.9726 142.961 53.7726 143.751C54.8626 144.831 64.0526 152.101 64.3426 152.101C64.5526 152.101 72.2826 141.951 77.5926 134.711C79.3226 132.361 79.4226 131.591 78.7626 125.501C77.1426 110.441 77.4526 111.301 74.8926 114.601ZM292.693 121.941C292.693 122.141 303.643 135.151 304.273 135.701C304.393 135.811 305.463 137.021 306.633 138.401C307.813 139.771 309.013 140.901 309.303 140.901C310.013 140.901 319.653 136.491 319.393 136.291C319.333 136.241 318.213 135.611 316.893 134.891C315.573 134.161 313.953 133.271 313.293 132.901C312.633 132.541 310.653 131.461 308.893 130.511C307.133 129.561 303.803 127.751 301.493 126.491C293.883 122.321 292.693 121.711 292.693 121.941ZM362.293 122.121C361.963 122.321 360.253 123.141 358.493 123.941C346.393 129.431 347.513 128.311 345.523 136.901C343.833 144.211 343.723 143.711 347.393 145.741C353.023 148.851 354.083 149.421 355.483 150.121L356.873 150.821L357.523 148.561C358.793 144.201 359.913 139.721 361.103 134.301C362.193 129.371 363.373 121.671 363.043 121.721C362.963 121.741 362.623 121.911 362.293 122.121ZM323.493 140.111C323.163 140.301 321.723 140.991 320.293 141.621C311.703 145.441 312.033 145.141 313.793 147.421C314.393 148.201 316.153 150.651 317.693 152.861C319.233 155.071 321.763 158.641 323.303 160.791C326.023 164.571 329.873 170.051 331.773 172.861C333.183 174.931 333.253 174.741 323.893 193.351C319.053 202.981 315.093 211.131 315.093 211.471C315.093 212.351 328.933 212.411 330.613 211.541C331.633 211.011 333.493 208.881 333.493 208.241C333.493 207.351 341.983 190.911 342.333 191.121C342.553 191.261 344.813 195.591 347.353 200.741C349.893 205.881 352.333 210.551 352.763 211.101L353.553 212.101H360.923C366.063 212.101 368.293 211.961 368.293 211.651C368.293 211.411 364.053 202.741 358.863 192.381C352.753 180.191 349.493 173.251 349.613 172.721C349.713 172.271 350.563 169.831 351.483 167.301C355.233 157.081 355.463 155.971 353.993 155.061C352.513 154.141 342.703 148.901 342.453 148.901C342.383 148.901 342.213 149.531 342.063 150.301C341.923 151.081 341.653 151.801 341.483 151.911C341.303 152.021 341.043 152.821 340.893 153.701C340.743 154.581 340.463 155.401 340.263 155.521C340.053 155.651 339.893 156.111 339.893 156.561C339.893 158.261 336.863 154.611 329.203 143.701C326.923 140.451 324.973 139.221 323.493 140.111ZM21.5226 199.201C20.3826 201.661 19.8526 202.901 18.0926 207.301C17.0826 209.831 16.0826 212.261 15.8726 212.701C15.3326 213.831 13.6926 218.391 12.0526 223.301C11.2726 225.611 10.4926 227.861 10.3026 228.301C10.1126 228.741 9.65255 230.181 9.28255 231.501C8.91255 232.821 8.36256 234.711 8.07256 235.701C7.32256 238.191 5.52255 245.121 5.04255 247.301C3.51255 254.311 2.42256 260.311 1.66256 265.901C0.522555 274.221 0.532554 274.211 1.37255 275.251L2.14255 276.211L4.52255 274.601C5.82255 273.721 7.98256 272.391 9.31256 271.651C15.3226 268.311 16.6026 265.981 18.0926 255.701C18.2426 254.711 18.5126 253.271 18.7126 252.501C18.9026 251.731 19.3526 249.751 19.7226 248.101C20.0826 246.451 20.6226 244.291 20.9026 243.301C21.1826 242.311 21.7226 240.421 22.0926 239.101C22.7826 236.651 26.4026 225.931 28.6726 219.591C30.2326 215.231 30.6126 216.621 23.2526 199.801C22.3726 197.801 22.1926 197.741 21.5226 199.201ZM312.893 216.971C311.293 217.541 309.983 218.781 309.053 220.581C307.993 222.661 307.983 222.641 311.053 227.801C312.563 230.351 313.873 232.591 313.953 232.771C315.593 236.391 316.223 236.561 317.903 233.851C318.663 232.611 319.563 231.181 319.893 230.661C323.433 225.091 327.893 217.661 327.893 217.321C327.893 217.021 326.373 216.921 323.193 216.991C320.603 217.051 317.503 216.981 316.293 216.821C314.993 216.661 313.603 216.721 312.893 216.971ZM356.363 220.601C357.943 224.781 362.123 236.961 362.393 238.181C362.513 238.691 363.243 241.531 364.013 244.501C366.133 252.631 367.303 258.691 367.983 265.201C368.383 268.991 368.573 269.701 369.143 269.701C369.803 269.701 375.223 267.791 377.753 266.661C378.443 266.351 379.233 266.101 379.493 266.101C381.433 266.101 382.393 264.441 382.123 261.541C381.213 251.931 377.383 236.431 372.483 222.521C371.903 220.891 371.173 219.041 370.853 218.421L370.273 217.301H362.693H355.113L356.363 220.601ZM303.303 230.231C302.423 231.371 300.343 234.101 298.673 236.301C297.003 238.501 293.223 243.451 290.283 247.301C273.973 268.631 274.113 268.451 274.343 268.691C274.453 268.791 275.883 269.171 277.513 269.531C279.153 269.891 281.663 270.441 283.093 270.761C284.523 271.071 286.603 271.431 287.713 271.561L289.733 271.791L292.583 268.041C294.143 265.981 296.663 262.681 298.183 260.701C308.833 246.751 312.243 242.171 312.343 241.671C312.573 240.541 311.833 238.831 309.383 234.791C308.013 232.531 306.593 230.151 306.223 229.501C305.283 227.841 305.093 227.891 303.303 230.231ZM67.5226 237.621C64.5726 239.761 62.0926 241.701 62.0226 241.921C61.8626 242.401 68.6926 250.721 76.6126 259.701C86.7326 271.181 106.123 290.161 117.293 299.501C125.683 306.521 128.903 309.071 136.343 314.621C143.313 319.811 159.713 331.101 161.013 331.601C161.483 331.781 171.503 322.011 171.483 321.381C171.483 321.221 168.563 319.211 164.993 316.901C161.423 314.591 156.423 311.221 153.893 309.411C151.363 307.601 148.963 305.891 148.553 305.611C146.893 304.471 137.083 296.931 134.333 294.701C132.713 293.381 130.773 291.821 130.013 291.241C117.353 281.411 95.9526 260.171 81.0926 242.701C76.4326 237.221 74.5926 234.971 74.1726 234.251C73.6326 233.311 73.0626 233.601 67.5226 237.621ZM381.893 270.571C381.343 270.801 378.383 271.871 375.323 272.941C369.163 275.101 369.103 275.141 369.103 277.701C369.103 279.671 368.443 289.201 367.883 295.501C366.603 309.651 360.383 325.051 352.503 333.551C352.283 333.791 351.213 335.001 350.143 336.241C339.023 349.101 322.933 356.151 297.493 359.291C291.233 360.071 290.483 360.171 289.973 360.331C289.493 360.481 301.133 372.231 302.573 373.041C303.743 373.711 318.633 370.701 325.093 368.491C331.153 366.421 332.033 366.071 336.493 363.941C361.563 351.971 377.133 330.061 382.303 299.501C383.193 294.241 383.973 270.071 383.253 270.121C383.053 270.141 382.443 270.341 381.893 270.571ZM269.223 273.421C268.743 273.681 261.813 280.381 253.813 288.301C245.823 296.221 238.543 303.361 237.633 304.161L235.993 305.611L241.093 310.701C243.903 313.501 246.383 315.731 246.603 315.651C248.653 314.881 272.833 291.121 281.003 281.841C285.823 276.361 285.823 276.361 282.843 275.911C281.823 275.761 280.603 275.481 280.143 275.301C279.673 275.111 277.493 274.571 275.293 274.091C273.093 273.611 271.023 273.161 270.693 273.081C270.363 273.001 269.703 273.151 269.223 273.421ZM7.43256 278.601C3.77256 280.841 0.592554 282.981 0.352554 283.351C-0.897446 285.361 1.42255 312.861 3.46255 320.101C3.68255 320.871 4.24255 322.851 4.70255 324.501C5.17255 326.151 5.70255 327.861 5.89255 328.301C6.08255 328.741 6.54256 330.001 6.93256 331.101C10.2026 340.451 12.4426 343.541 19.4926 348.351C21.5826 349.771 24.4026 351.731 25.7526 352.701C34.1626 358.691 51.7426 370.161 64.4926 377.981C78.0126 386.261 74.9426 385.431 92.2926 385.441C109.853 385.441 106.953 386.541 117.493 375.871C125.253 368.021 126.343 366.541 123.573 367.651C122.983 367.891 121.413 368.281 120.093 368.511C112.303 369.891 110.463 370.191 106.293 370.731C96.0926 372.071 81.9926 371.791 74.4926 370.111C73.6126 369.921 71.5426 369.461 69.8926 369.101C66.9826 368.471 62.5226 367.181 60.8926 366.511C60.4526 366.331 59.1026 365.781 57.8926 365.291C37.5126 357.011 23.8026 340.421 17.5726 316.501C15.3126 307.841 14.9726 304.431 14.8026 288.601C14.7226 280.851 14.5326 274.511 14.3726 274.521C14.2226 274.531 11.0926 276.371 7.43256 278.601ZM214.693 322.111C196.153 335.901 197.083 335.411 193.263 333.281C192.053 332.611 189.593 331.291 187.783 330.341C185.973 329.391 183.323 327.951 181.893 327.141C180.463 326.331 178.743 325.391 178.073 325.051L176.843 324.421L171.863 329.491C169.133 332.271 166.853 334.681 166.793 334.831C166.673 335.141 167.093 335.421 170.493 337.301C171.813 338.041 174.023 339.321 175.403 340.171C176.783 341.011 177.993 341.701 178.113 341.701C178.533 341.701 181.493 343.731 181.493 344.021C181.493 344.491 173.753 348.851 167.493 351.921C160.133 355.521 155.913 357.261 149.093 359.481C141.373 362.001 133.483 366.771 128.373 372.021C127.123 373.311 124.123 376.371 121.713 378.821C119.303 381.271 117.413 383.351 117.513 383.441C117.723 383.641 120.013 383.261 124.093 382.361C130.333 380.991 130.603 380.921 138.093 378.671C140.733 377.871 143.523 377.051 144.293 376.841C145.063 376.631 146.053 376.311 146.493 376.121C146.933 375.941 148.193 375.471 149.293 375.091C152.713 373.901 160.393 370.891 162.603 369.871C163.763 369.341 164.793 368.901 164.893 368.901C165.993 368.901 184.483 359.501 190.893 355.681C196.683 352.231 197.673 351.861 199.393 352.471C200.903 353.001 211.813 357.431 213.293 358.121C213.733 358.321 216.433 359.371 219.293 360.451C226.383 363.141 231.993 364.981 239.493 367.101C240.483 367.371 242.013 367.801 242.893 368.051C255.973 371.751 275.253 374.271 288.493 374.031C293.353 373.941 295.693 373.761 295.693 373.461C295.693 373.221 292.813 370.251 289.293 366.861C281.663 359.501 282.133 359.721 271.493 358.551C260.783 357.381 251.713 355.641 243.093 353.111C239.003 351.911 232.843 350.001 232.093 349.701C231.653 349.531 229.763 348.841 227.893 348.181C226.023 347.521 222.153 346.131 219.293 345.091C216.433 344.061 213.853 343.141 213.563 343.061C212.493 342.741 213.333 342.001 222.893 334.711C225.753 332.541 230.073 329.231 232.493 327.381C234.913 325.521 238.113 323.081 239.593 321.961L242.303 319.921L237.203 314.811C234.393 312.001 231.923 309.711 231.703 309.731C231.473 309.751 223.823 315.321 214.693 322.111ZM23.1926 357.941C26.1126 361.331 30.6226 365.541 35.0926 369.051C38.9826 372.101 46.1226 376.061 52.4926 378.681C54.4726 379.501 56.3726 380.311 56.7026 380.481C59.0926 381.711 60.0326 381.361 58.0126 379.991C56.8626 379.211 55.7826 378.521 55.6126 378.441C55.4326 378.361 52.6326 376.551 49.3926 374.401C46.1526 372.251 40.8426 368.771 37.5926 366.651C34.3426 364.541 30.7426 362.151 29.5826 361.351C28.4226 360.551 27.1726 359.721 26.8026 359.501C26.4326 359.281 25.4226 358.611 24.5526 358.001C22.5626 356.621 22.0326 356.591 23.1926 357.941Z"/>
</svg>
