<!-- used figma to convert the svg Ben gave me to this -->
<svg width="396" height="615" viewBox="0 0 396 615" fill="none" xmlns="http://www.w3.org/2000/svg">
<path fill="#000000" fill-rule="evenodd" clip-rule="evenodd" d="M245.938 0.741188C237.54 4.64319 213.056 29.1342 200.953 45.7392C187.264 64.5202 182.233 82.5652 186.657 97.0162C188.828 104.109 188.109 109.951 184.203 116.942C181.148 122.41 179.19 123.697 175.63 122.578C168.284 120.27 156.95 121.98 140.658 127.854C129.375 131.922 126.646 129.59 123.931 113.559C123.339 110.06 121.87 103.291 120.668 98.5172C119.466 93.7422 118.295 88.5162 118.066 86.9032C117.481 82.7742 115.736 77.7182 113.034 72.3272C107.762 61.8052 105.935 52.8442 107.084 43.1352C108.356 32.3822 107.323 24.3822 104.211 20.8752L102.909 19.4072L101.427 20.7452C98.225 23.6382 96.022 30.8222 94.457 43.4702C93.251 53.2212 90.832 53.3392 83.761 43.9912C71.648 27.9792 57.573 14.6592 53.57 15.4192C49.851 16.1262 56.286 30.3182 67.54 46.2302C72.501 53.2442 73.591 55.1422 73.604 56.7862C73.629 59.9512 70.766 60.0882 64.273 57.2342C49.511 50.7472 35.429 49.7872 28.856 54.8212C28.78 54.8792 29.138 55.5602 29.651 56.3352C31.49 59.1152 35.825 61.1672 44.001 63.1312C66.882 68.6272 72.502 74.0072 60.243 78.6802C49.105 82.9262 37.878 91.7562 37.851 96.2912C37.834 99.0972 46.646 97.4192 58.461 92.3652C67.738 88.3972 71.502 88.7732 81.771 94.6942C87.323 97.8962 92.113 100.292 95.006 101.316L96.782 101.945L96.985 112.21C97.433 134.877 101.275 149.512 108.568 156.334C112.995 160.475 123.913 160.456 142.816 156.275C153.106 153.999 155.514 157.088 152.334 168.482C140 212.68 143.606 259.693 162.163 296.607C170.621 313.431 174.623 331.364 172.082 341.056C169.856 349.545 167.714 349.957 152.246 344.872C141.663 341.393 135.027 340.86 128.473 342.964C121.06 345.342 119.053 346.933 102.778 363.326C87.352 378.864 88.231 378.203 82.639 378.456C73.135 378.884 62.614 375.246 54.681 368.789C44.103 360.177 34.298 356.284 24.408 356.77C14.882 357.237 8.768 361.25 13.614 363.855C14.535 364.35 16.007 364.514 21.181 364.699C32.694 365.108 40.999 368.395 45.818 374.448C49.446 379.003 46.985 380.471 37.674 379.305C25.957 377.838 11.769 382.992 1.65 392.392C0.175 393.762 0 394.082 0 395.419C0 398.432 2.514 398.781 8.269 396.57C27.377 389.226 39.549 388.023 46.177 392.824C49.274 395.068 49.226 396.748 45.952 400.666C36.528 411.943 29.551 437.181 34.091 443.569C35.714 445.851 38.467 444.005 40.134 439.516C48.368 417.353 55.645 406.56 62.355 406.56C65.665 406.56 66.526 408.109 65.989 413.099C64.569 426.283 73.955 449.488 79.148 445.636C81.268 444.063 81.47 439.384 79.837 429.639C77.869 417.897 78.759 413.536 83.831 410.062C93.195 403.649 99.466 397.393 102.396 391.544C104.68 386.984 127.229 368.348 134.549 364.971C139.901 362.502 149.817 366.084 160.352 374.291C169.569 381.471 182.239 387.833 192.433 390.398C198.231 391.857 199.792 392.986 202.698 397.822C211.66 412.736 208.755 442.506 196.12 465.237C189.383 477.357 174.558 496.119 158.042 513.427C133.1 539.566 126.342 559.15 135.751 578.03C144.907 596.403 173.087 614.662 192.287 614.662C197.955 614.662 197.656 613.3 191.146 609.471C179.797 602.796 168.015 589.447 163.36 577.988C157.351 563.194 158.962 553.251 170.217 535.669C178.775 522.3 183.069 517.418 205.95 495.044C234.282 467.341 249.29 436.332 249.308 405.461C249.321 385.23 256.622 368.268 269.098 359.488C278.201 353.081 280.049 353.927 286.818 367.601C297.573 389.325 304.624 394.074 329.048 396.039C339.848 396.907 346.155 401.553 349.469 411.082C349.988 412.574 350.632 414.419 350.9 415.183C353.484 422.546 357.189 420.939 356.86 412.599C356.481 403.008 352.795 395.004 345.709 388.386C342.837 385.704 342.589 385.123 343.936 384.24C348.191 381.452 359.751 388.638 370.926 401.017C377.694 408.514 380.207 408.676 380.208 401.616C380.211 390.758 368.28 376.426 355.826 372.325C348.201 369.815 352.134 364.62 363.542 362.133C367.276 361.32 379.888 361.084 388.245 361.673C393.998 362.078 395.834 361.421 395.834 358.956C395.834 357.141 395.418 356.73 391.998 355.163C378.977 349.198 364.616 348.878 353.127 354.296C346.176 357.573 343.377 355.745 346.346 349.865C349.751 343.125 357.914 337.101 367.014 334.613C372.981 332.982 374.653 331.927 374.653 329.791C374.653 327.709 373.65 327.335 368.071 327.34C356.292 327.351 344.683 334.6 336.382 347.128C329.068 358.167 317.251 367.424 312.207 366.066C308.38 365.035 307.354 361.781 306.947 349.385C305.271 298.362 276.782 288.812 247.093 329.322L244.365 333.044L242.91 332.043C234.563 326.3 228.425 312.353 225.496 292.473C221.52 265.488 215.954 243.092 208.908 225.729C201.905 208.47 203.538 187.584 212.416 180.866C220.006 175.122 231.207 178.923 238.848 189.836C244.435 197.815 252.404 202.137 260.764 201.722C265.312 201.496 265.29 201.507 285.165 190.236L302.678 180.305L304.654 180.999C307.775 182.096 314.051 183.025 321.104 183.433C333.469 184.149 337.041 185.873 342.275 193.655C350.147 205.359 357.611 212.396 358.817 209.252C360.692 204.367 356.339 192.003 349.926 183.997C346.353 179.537 344.363 174.864 345.152 172.788C345.856 170.936 354.936 172.719 369.098 177.49C379.657 181.047 383.661 181.685 386.719 180.297C388.375 179.545 388.492 179.106 387.537 177.235C384.474 171.237 372.414 165.728 354.688 162.229C347.297 160.77 345.275 159.232 347.657 156.882C348.816 155.739 349.69 155.335 358.334 151.961C376.599 144.829 392.782 134.289 387.927 132.687C382.254 130.815 365.459 135.257 344.014 144.302C335.156 148.038 334.626 147.389 338.81 137.926C344.106 125.947 346.203 117.528 345.334 111.733C345.017 109.618 344.538 109.489 341.869 110.803C337.463 112.972 333.631 118.017 328.256 128.725C322.089 141.01 318.99 144.245 309.862 147.925C303.459 150.507 298.681 153.951 295.238 158.466C293.66 160.535 264.999 174.905 262.45 174.905C262.326 174.905 260.366 172.405 258.093 169.35C245.45 152.355 234.113 141.649 227.874 140.812L226.5 140.627L226.988 138.496C229.579 127.169 234.63 118.657 241.784 113.559C252.587 105.862 258.721 94.9562 261.768 78.0302C268.927 38.2632 266.984 8.66419 256.752 1.61219C254.274 -0.095812 248.705 -0.544812 245.938 0.741188Z"/>
</svg>
