<svg xmlns="http://www.w3.org/2000/svg" xmlns:xlink="http://www.w3.org/1999/xlink" width="400" height="620.8333333333334" viewBox="0, 0, 400,620.8333333333334">
<path stroke="none" fill="#6e9dd4" fill-rule="evenodd" d="M248.021 3.787 C 239.623 7.689,215.139 32.180,203.036 48.785 C 189.347 67.566,184.316 85.611,188.740 100.062 C 190.911 107.155,190.192 112.997,186.286 119.988 C 183.231 125.456,181.273 126.743,177.713 125.624 C 170.367 123.316,159.033 125.026,142.741 130.900 C 131.458 134.968,128.729 132.636,126.014 116.605 C 125.422 113.106,123.953 106.337,122.751 101.563 C 121.549 96.788,120.378 91.562,120.149 89.949 C 119.564 85.820,117.819 80.764,115.117 75.373 C 109.845 64.851,108.018 55.890,109.167 46.181 C 110.439 35.428,109.406 27.428,106.294 23.921 L 104.992 22.453 103.510 23.791 C 100.308 26.684,98.105 33.868,96.540 46.516 C 95.334 56.267,92.915 56.385,85.844 47.037 C 73.731 31.025,59.656 17.705,55.653 18.465 C 51.934 19.172,58.369 33.364,69.623 49.276 C 74.584 56.290,75.674 58.188,75.687 59.832 C 75.712 62.997,72.849 63.134,66.356 60.280 C 51.594 53.793,37.512 52.833,30.939 57.867 C 30.863 57.925,31.221 58.606,31.734 59.381 C 33.573 62.161,37.908 64.213,46.084 66.177 C 68.965 71.673,74.585 77.053,62.326 81.726 C 51.188 85.972,39.961 94.802,39.934 99.337 C 39.917 102.143,48.729 100.465,60.544 95.411 C 69.821 91.443,73.585 91.819,83.854 97.740 C 89.406 100.942,94.196 103.338,97.089 104.362 L 98.865 104.991 99.068 115.256 C 99.516 137.923,103.358 152.558,110.651 159.380 C 115.078 163.521,125.996 163.502,144.899 159.321 C 155.189 157.045,157.597 160.134,154.417 171.528 C 142.083 215.726,145.689 262.739,164.246 299.653 C 172.704 316.477,176.706 334.410,174.165 344.102 C 171.939 352.591,169.797 353.003,154.329 347.918 C 143.746 344.439,137.110 343.906,130.556 346.010 C 123.143 348.388,121.136 349.979,104.861 366.372 C 89.435 381.910,90.314 381.249,84.722 381.502 C 75.218 381.930,64.697 378.292,56.764 371.835 C 46.186 363.223,36.381 359.330,26.491 359.816 C 16.965 360.283,10.851 364.296,15.697 366.901 C 16.618 367.396,18.090 367.560,23.264 367.745 C 34.777 368.154,43.082 371.441,47.901 377.494 C 51.529 382.049,49.068 383.517,39.757 382.351 C 28.040 380.884,13.852 386.038,3.733 395.438 C 2.258 396.808,2.083 397.128,2.083 398.465 C 2.083 401.478,4.597 401.827,10.352 399.616 C 29.460 392.272,41.632 391.069,48.260 395.870 C 51.357 398.114,51.309 399.794,48.035 403.712 C 38.611 414.989,31.634 440.227,36.174 446.615 C 37.797 448.897,40.550 447.051,42.217 442.562 C 50.451 420.399,57.728 409.606,64.438 409.606 C 67.748 409.606,68.609 411.155,68.072 416.145 C 66.652 429.329,76.038 452.534,81.231 448.682 C 83.351 447.109,83.553 442.430,81.920 432.685 C 79.952 420.943,80.842 416.582,85.914 413.108 C 95.278 406.695,101.549 400.439,104.479 394.590 C 106.763 390.030,129.312 371.394,136.632 368.017 C 141.984 365.548,151.900 369.130,162.435 377.337 C 171.652 384.517,184.322 390.879,194.516 393.444 C 200.314 394.903,201.875 396.032,204.781 400.868 C 213.743 415.782,210.838 445.552,198.203 468.283 C 191.466 480.403,176.641 499.165,160.125 516.473 C 135.183 542.612,128.425 562.196,137.834 581.076 C 146.990 599.449,175.170 617.708,194.370 617.708 C 200.038 617.708,199.739 616.346,193.229 612.517 C 181.880 605.842,170.098 592.493,165.443 581.034 C 159.434 566.240,161.045 556.297,172.300 538.715 C 180.858 525.346,185.152 520.464,208.033 498.090 C 236.365 470.387,251.373 439.378,251.391 408.507 C 251.404 388.276,258.705 371.314,271.181 362.534 C 280.284 356.127,282.132 356.973,288.901 370.647 C 299.656 392.371,306.707 397.120,331.131 399.085 C 341.931 399.953,348.238 404.599,351.552 414.128 C 352.071 415.620,352.715 417.465,352.983 418.229 C 355.567 425.592,359.272 423.985,358.943 415.645 C 358.564 406.054,354.878 398.050,347.792 391.432 C 344.920 388.750,344.672 388.169,346.019 387.286 C 350.274 384.498,361.834 391.684,373.009 404.063 C 379.777 411.560,382.290 411.722,382.291 404.662 C 382.294 393.804,370.363 379.472,357.909 375.371 C 350.284 372.861,354.217 367.666,365.625 365.179 C 369.359 364.366,381.971 364.130,390.328 364.719 C 396.081 365.124,397.917 364.467,397.917 362.002 C 397.917 360.187,397.501 359.776,394.081 358.209 C 381.060 352.244,366.699 351.924,355.210 357.342 C 348.259 360.619,345.460 358.791,348.429 352.911 C 351.834 346.171,359.997 340.147,369.097 337.659 C 375.064 336.028,376.736 334.973,376.736 332.837 C 376.736 330.755,375.733 330.381,370.154 330.386 C 358.375 330.397,346.766 337.646,338.465 350.174 C 331.151 361.213,319.334 370.470,314.290 369.112 C 310.463 368.081,309.437 364.827,309.030 352.431 C 307.354 301.408,278.865 291.858,249.176 332.368 L 246.448 336.090 244.993 335.089 C 236.646 329.346,230.508 315.399,227.579 295.519 C 223.603 268.534,218.037 246.138,210.991 228.775 C 203.988 211.516,205.621 190.630,214.499 183.912 C 222.089 178.168,233.290 181.969,240.931 192.882 C 246.518 200.861,254.487 205.183,262.847 204.768 C 267.395 204.542,267.373 204.553,287.248 193.282 L 304.761 183.351 306.737 184.045 C 309.858 185.142,316.134 186.071,323.187 186.479 C 335.552 187.195,339.124 188.919,344.358 196.701 C 352.230 208.405,359.694 215.442,360.900 212.298 C 362.775 207.413,358.422 195.049,352.009 187.043 C 348.436 182.583,346.446 177.910,347.235 175.834 C 347.939 173.982,357.019 175.765,371.181 180.536 C 381.740 184.093,385.744 184.731,388.802 183.343 C 390.458 182.591,390.575 182.152,389.620 180.281 C 386.557 174.283,374.497 168.774,356.771 165.275 C 349.380 163.816,347.358 162.278,349.740 159.928 C 350.899 158.785,351.773 158.381,360.417 155.007 C 378.682 147.875,394.865 137.335,390.010 135.733 C 384.337 133.861,367.542 138.303,346.097 147.348 C 337.239 151.084,336.709 150.435,340.893 140.972 C 346.189 128.993,348.286 120.574,347.417 114.779 C 347.100 112.664,346.621 112.535,343.952 113.849 C 339.546 116.018,335.714 121.063,330.339 131.771 C 324.172 144.056,321.073 147.291,311.945 150.971 C 305.542 153.553,300.764 156.997,297.321 161.512 C 295.743 163.581,267.082 177.951,264.533 177.951 C 264.409 177.951,262.449 175.451,260.176 172.396 C 247.533 155.401,236.196 144.695,229.957 143.858 L 228.583 143.673 229.071 141.542 C 231.662 130.215,236.713 121.703,243.867 116.605 C 254.670 108.908,260.804 98.002,263.851 81.076 C 271.010 41.309,269.067 11.710,258.835 4.658 C 256.357 2.950,250.788 2.501,248.021 3.787 ">
</path>
</svg>